<svg id="visual" viewBox="0 0 900 300" width="900" height="300" xmlns="http://www.w3.org/2000/svg" xmlns:xlink="http://www.w3.org/1999/xlink" version="1.1"><rect x="0" y="0" width="900" height="300" fill="#FFF"></rect><path d="M0 227L18.8 227.2C37.7 227.3 75.3 227.7 112.8 225.2C150.3 222.7 187.7 217.3 225.2 215.8C262.7 214.3 300.3 216.7 337.8 219.8C375.3 223 412.7 227 450.2 227.7C487.7 228.3 525.3 225.7 562.8 225.5C600.3 225.3 637.7 227.7 675.2 225.8C712.7 224 750.3 218 787.8 217.2C825.3 216.3 862.7 220.7 881.3 222.8L900 225L900 301L881.3 301C862.7 301 825.3 301 787.8 301C750.3 301 712.7 301 675.2 301C637.7 301 600.3 301 562.8 301C525.3 301 487.7 301 450.2 301C412.7 301 375.3 301 337.8 301C300.3 301 262.7 301 225.2 301C187.7 301 150.3 301 112.8 301C75.3 301 37.7 301 18.8 301L0 301Z" fill="#fa7268"></path><path d="M0 231L18.8 231.3C37.7 231.7 75.3 232.3 112.8 231.3C150.3 230.3 187.7 227.7 225.2 226.3C262.7 225 300.3 225 337.8 227.2C375.3 229.3 412.7 233.7 450.2 235.7C487.7 237.7 525.3 237.3 562.8 237.7C600.3 238 637.7 239 675.2 238.8C712.7 238.7 750.3 237.3 787.8 234.8C825.3 232.3 862.7 228.7 881.3 226.8L900 225L900 301L881.3 301C862.7 301 825.3 301 787.8 301C750.3 301 712.7 301 675.2 301C637.7 301 600.3 301 562.8 301C525.3 301 487.7 301 450.2 301C412.7 301 375.3 301 337.8 301C300.3 301 262.7 301 225.2 301C187.7 301 150.3 301 112.8 301C75.3 301 37.7 301 18.8 301L0 301Z" fill="#c0547e"></path><path d="M0 258L18.8 255.3C37.7 252.7 75.3 247.3 112.8 245C150.3 242.7 187.7 243.3 225.2 245.2C262.7 247 300.3 250 337.8 249.7C375.3 249.3 412.7 245.7 450.2 245C487.7 244.3 525.3 246.7 562.8 249C600.3 251.3 637.7 253.7 675.2 253.5C712.7 253.3 750.3 250.7 787.8 249C825.3 247.3 862.7 246.7 881.3 246.3L900 246L900 301L881.3 301C862.7 301 825.3 301 787.8 301C750.3 301 712.7 301 675.2 301C637.7 301 600.3 301 562.8 301C525.3 301 487.7 301 450.2 301C412.7 301 375.3 301 337.8 301C300.3 301 262.7 301 225.2 301C187.7 301 150.3 301 112.8 301C75.3 301 37.7 301 18.8 301L0 301Z" fill="#754679"></path><path d="M0 265L18.8 265.5C37.7 266 75.3 267 112.8 267.3C150.3 267.7 187.7 267.3 225.2 266C262.7 264.7 300.3 262.3 337.8 261.5C375.3 260.7 412.7 261.3 450.2 262.8C487.7 264.3 525.3 266.7 562.8 267C600.3 267.3 637.7 265.7 675.2 265C712.7 264.3 750.3 264.7 787.8 264C825.3 263.3 862.7 261.7 881.3 260.8L900 260L900 301L881.3 301C862.7 301 825.3 301 787.8 301C750.3 301 712.7 301 675.2 301C637.7 301 600.3 301 562.8 301C525.3 301 487.7 301 450.2 301C412.7 301 375.3 301 337.8 301C300.3 301 262.7 301 225.2 301C187.7 301 150.3 301 112.8 301C75.3 301 37.7 301 18.8 301L0 301Z" fill="#303558"></path><path d="M0 275L18.8 275.3C37.7 275.7 75.3 276.3 112.8 276.3C150.3 276.3 187.7 275.7 225.2 276.7C262.7 277.7 300.3 280.3 337.8 280.5C375.3 280.7 412.7 278.3 450.2 278.7C487.7 279 525.3 282 562.8 282.5C600.3 283 637.7 281 675.2 279.3C712.7 277.7 750.3 276.3 787.8 275.3C825.3 274.3 862.7 273.7 881.3 273.3L900 273L900 301L881.3 301C862.7 301 825.3 301 787.8 301C750.3 301 712.7 301 675.2 301C637.7 301 600.3 301 562.8 301C525.3 301 487.7 301 450.2 301C412.7 301 375.3 301 337.8 301C300.3 301 262.7 301 225.2 301C187.7 301 150.3 301 112.8 301C75.3 301 37.7 301 18.8 301L0 301Z" fill="#091c29"></path></svg>