<svg id="visual" viewBox="0 0 900 600" width="900" height="600" xmlns="http://www.w3.org/2000/svg" xmlns:xlink="http://www.w3.org/1999/xlink" version="1.1"><rect x="0" y="0" width="900" height="600" fill="#091c29"></rect><path d="M0 455L18.8 455.5C37.7 456 75.3 457 112.8 452C150.3 447 187.7 436 225.2 432.7C262.7 429.3 300.3 433.7 337.8 440C375.3 446.3 412.7 454.7 450.2 456.2C487.7 457.7 525.3 452.3 562.8 452C600.3 451.7 637.7 456.3 675.2 452.7C712.7 449 750.3 437 787.8 435.2C825.3 433.3 862.7 441.7 881.3 445.8L900 450L900 601L881.3 601C862.7 601 825.3 601 787.8 601C750.3 601 712.7 601 675.2 601C637.7 601 600.3 601 562.8 601C525.3 601 487.7 601 450.2 601C412.7 601 375.3 601 337.8 601C300.3 601 262.7 601 225.2 601C187.7 601 150.3 601 112.8 601C75.3 601 37.7 601 18.8 601L0 601Z" fill="#fa7268"></path><path d="M0 463L18.8 463.5C37.7 464 75.3 465 112.8 463C150.3 461 187.7 456 225.2 453.5C262.7 451 300.3 451 337.8 455.2C375.3 459.3 412.7 467.7 450.2 471.7C487.7 475.7 525.3 475.3 562.8 476C600.3 476.7 637.7 478.3 675.2 478.2C712.7 478 750.3 476 787.8 471.3C825.3 466.7 862.7 459.3 881.3 455.7L900 452L900 601L881.3 601C862.7 601 825.3 601 787.8 601C750.3 601 712.7 601 675.2 601C637.7 601 600.3 601 562.8 601C525.3 601 487.7 601 450.2 601C412.7 601 375.3 601 337.8 601C300.3 601 262.7 601 225.2 601C187.7 601 150.3 601 112.8 601C75.3 601 37.7 601 18.8 601L0 601Z" fill="#ef5f67"></path><path d="M0 516L18.8 510.8C37.7 505.7 75.3 495.3 112.8 490.8C150.3 486.3 187.7 487.7 225.2 491.2C262.7 494.7 300.3 500.3 337.8 499.7C375.3 499 412.7 492 450.2 491C487.7 490 525.3 495 562.8 499.7C600.3 504.3 637.7 508.7 675.2 508.2C712.7 507.7 750.3 502.3 787.8 498.8C825.3 495.3 862.7 493.7 881.3 492.8L900 492L900 601L881.3 601C862.7 601 825.3 601 787.8 601C750.3 601 712.7 601 675.2 601C637.7 601 600.3 601 562.8 601C525.3 601 487.7 601 450.2 601C412.7 601 375.3 601 337.8 601C300.3 601 262.7 601 225.2 601C187.7 601 150.3 601 112.8 601C75.3 601 37.7 601 18.8 601L0 601Z" fill="#e34c67"></path><path d="M0 531L18.8 531.8C37.7 532.7 75.3 534.3 112.8 535.2C150.3 536 187.7 536 225.2 533.7C262.7 531.3 300.3 526.7 337.8 524.8C375.3 523 412.7 524 450.2 527C487.7 530 525.3 535 562.8 535.7C600.3 536.3 637.7 532.7 675.2 531C712.7 529.3 750.3 529.7 787.8 528.3C825.3 527 862.7 524 881.3 522.5L900 521L900 601L881.3 601C862.7 601 825.3 601 787.8 601C750.3 601 712.7 601 675.2 601C637.7 601 600.3 601 562.8 601C525.3 601 487.7 601 450.2 601C412.7 601 375.3 601 337.8 601C300.3 601 262.7 601 225.2 601C187.7 601 150.3 601 112.8 601C75.3 601 37.7 601 18.8 601L0 601Z" fill="#d53867"></path><path d="M0 551L18.8 551.5C37.7 552 75.3 553 112.8 553.2C150.3 553.3 187.7 552.7 225.2 554.8C262.7 557 300.3 562 337.8 562.2C375.3 562.3 412.7 557.7 450.2 558.2C487.7 558.7 525.3 564.3 562.8 565.3C600.3 566.3 637.7 562.7 675.2 559.3C712.7 556 750.3 553 787.8 551C825.3 549 862.7 548 881.3 547.5L900 547L900 601L881.3 601C862.7 601 825.3 601 787.8 601C750.3 601 712.7 601 675.2 601C637.7 601 600.3 601 562.8 601C525.3 601 487.7 601 450.2 601C412.7 601 375.3 601 337.8 601C300.3 601 262.7 601 225.2 601C187.7 601 150.3 601 112.8 601C75.3 601 37.7 601 18.8 601L0 601Z" fill="#c62368"></path></svg>