<svg id="visual" viewBox="0 0 900 300" width="900" height="300" xmlns="http://www.w3.org/2000/svg" xmlns:xlink="http://www.w3.org/1999/xlink" version="1.1"><path d="M0 55L13.7 56C27.3 57 54.7 59 82 63.5C109.3 68 136.7 75 163.8 85.5C191 96 218 110 245.2 105.5C272.3 101 299.7 78 327 70C354.3 62 381.7 69 409 75.5C436.3 82 463.7 88 491 86.5C518.3 85 545.7 76 573 76C600.3 76 627.7 85 654.8 85C682 85 709 76 736.2 79C763.3 82 790.7 97 818 100C845.3 103 872.7 94 886.3 89.5L900 85L900 0L886.3 0C872.7 0 845.3 0 818 0C790.7 0 763.3 0 736.2 0C709 0 682 0 654.8 0C627.7 0 600.3 0 573 0C545.7 0 518.3 0 491 0C463.7 0 436.3 0 409 0C381.7 0 354.3 0 327 0C299.7 0 272.3 0 245.2 0C218 0 191 0 163.8 0C136.7 0 109.3 0 82 0C54.7 0 27.3 0 13.7 0L0 0Z" fill="#ffffff"></path><path d="M0 187L13.7 178.5C27.3 170 54.7 153 82 145C109.3 137 136.7 138 163.8 143C191 148 218 157 245.2 157C272.3 157 299.7 148 327 150.5C354.3 153 381.7 167 409 165C436.3 163 463.7 145 491 143.5C518.3 142 545.7 157 573 166.5C600.3 176 627.7 180 654.8 181C682 182 709 180 736.2 185.5C763.3 191 790.7 204 818 203.5C845.3 203 872.7 189 886.3 182L900 175L900 83L886.3 87.5C872.7 92 845.3 101 818 98C790.7 95 763.3 80 736.2 77C709 74 682 83 654.8 83C627.7 83 600.3 74 573 74C545.7 74 518.3 83 491 84.5C463.7 86 436.3 80 409 73.5C381.7 67 354.3 60 327 68C299.7 76 272.3 99 245.2 103.5C218 108 191 94 163.8 83.5C136.7 73 109.3 66 82 61.5C54.7 57 27.3 55 13.7 54L0 53Z" fill="#f5cfc2"></path><path d="M0 232L13.7 226C27.3 220 54.7 208 82 202C109.3 196 136.7 196 163.8 197.5C191 199 218 202 245.2 200C272.3 198 299.7 191 327 192C354.3 193 381.7 202 409 202.5C436.3 203 463.7 195 491 198C518.3 201 545.7 215 573 221.5C600.3 228 627.7 227 654.8 225C682 223 709 220 736.2 224C763.3 228 790.7 239 818 239C845.3 239 872.7 228 886.3 222.5L900 217L900 173L886.3 180C872.7 187 845.3 201 818 201.5C790.7 202 763.3 189 736.2 183.5C709 178 682 180 654.8 179C627.7 178 600.3 174 573 164.5C545.7 155 518.3 140 491 141.5C463.7 143 436.3 161 409 163C381.7 165 354.3 151 327 148.5C299.7 146 272.3 155 245.2 155C218 155 191 146 163.8 141C136.7 136 109.3 135 82 143C54.7 151 27.3 168 13.7 176.5L0 185Z" fill="#e5a088"></path><path d="M0 271L13.7 268C27.3 265 54.7 259 82 257.5C109.3 256 136.7 259 163.8 260.5C191 262 218 262 245.2 260.5C272.3 259 299.7 256 327 256.5C354.3 257 381.7 261 409 261.5C436.3 262 463.7 259 491 261.5C518.3 264 545.7 272 573 272.5C600.3 273 627.7 266 654.8 262.5C682 259 709 259 736.2 263C763.3 267 790.7 275 818 274C845.3 273 872.7 263 886.3 258L900 253L900 215L886.3 220.5C872.7 226 845.3 237 818 237C790.7 237 763.3 226 736.2 222C709 218 682 221 654.8 223C627.7 225 600.3 226 573 219.5C545.7 213 518.3 199 491 196C463.7 193 436.3 201 409 200.5C381.7 200 354.3 191 327 190C299.7 189 272.3 196 245.2 198C218 200 191 197 163.8 195.5C136.7 194 109.3 194 82 200C54.7 206 27.3 218 13.7 224L0 230Z" fill="#d07251"></path><path d="M0 301L13.7 301C27.3 301 54.7 301 82 301C109.3 301 136.7 301 163.8 301C191 301 218 301 245.2 301C272.3 301 299.7 301 327 301C354.3 301 381.7 301 409 301C436.3 301 463.7 301 491 301C518.3 301 545.7 301 573 301C600.3 301 627.7 301 654.8 301C682 301 709 301 736.2 301C763.3 301 790.7 301 818 301C845.3 301 872.7 301 886.3 301L900 301L900 251L886.3 256C872.7 261 845.3 271 818 272C790.7 273 763.3 265 736.2 261C709 257 682 257 654.8 260.5C627.7 264 600.3 271 573 270.5C545.7 270 518.3 262 491 259.5C463.7 257 436.3 260 409 259.5C381.7 259 354.3 255 327 254.5C299.7 254 272.3 257 245.2 258.5C218 260 191 260 163.8 258.5C136.7 257 109.3 254 82 255.5C54.7 257 27.3 263 13.7 266L0 269Z" fill="#b6421c"></path></svg>